<svg height="482pt" viewBox="0 0 482.544 482" width="482pt" xmlns="http://www.w3.org/2000/svg"><path d="m458.40625 207.070312c-7.796875-6.542968-15.871094-13.308593-17.398438-19.046874-1.65625-6.175782 2.03125-16.390626 5.601563-26.261719 5.160156-14.273438 10.496094-29.042969 3.636719-40.882813-6.957032-12-22.558594-14.78125-37.597656-17.445312-10.214844-1.808594-20.800782-3.671875-25.160157-8.050782-4.359375-4.375-6.25-14.949218-8.046875-25.167968-2.671875-15.078125-5.433594-30.679688-17.457031-37.597656-11.832031-6.855469-26.609375-1.511719-40.878906 3.640624-9.875 3.574219-20.082031 7.253907-26.265625 5.597657-5.734375-1.535157-12.503906-9.597657-19.046875-17.40625-10-11.898438-20.304688-24.175781-34.511719-24.175781-14.210938 0-24.511719 12.277343-34.480469 24.152343-6.542969 7.796875-13.3125 15.871094-19.046875 17.398438-6.179687 1.648437-16.394531-2.039063-26.265625-5.601563-14.28125-5.160156-29.054687-10.488281-40.878906-3.636718-12 6.957031-14.785156 22.558593-17.449219 37.636718-1.808594 10.21875-3.671875 20.800782-8.046875 25.160156-4.378906 4.359376-14.953125 6.25-25.167969 8.050782-15.082031 2.671875-30.679687 5.429687-37.601562 17.453125-6.855469 11.839843-1.519531 26.609375 3.640625 40.882812 3.574219 9.871094 7.261719 20.085938 5.601563 26.261719-1.539063 5.738281-9.601563 12.503906-17.410157 19.046875-11.894531 9.960937-24.175781 20.265625-24.175781 34.472656 0 14.210938 12.28125 24.511719 24.152344 34.480469 7.800781 6.542969 15.871094 13.3125 17.398437 19.046875 1.65625 6.179687-2.03125 16.394531-5.597656 26.265625-5.160156 14.273438-10.496094 29.039062-3.640625 40.878906 6.960938 12 22.558594 14.785156 37.640625 17.449219 10.214844 1.808594 20.800781 3.671875 25.160156 8.046875 4.359375 4.378906 6.246094 14.953125 8.046875 25.167969 2.671875 15.082031 5.433594 30.679687 17.457032 37.601562 11.832031 6.855469 26.605468 1.511719 40.878906-3.640625 9.878906-3.566406 20.113281-7.246094 26.265625-5.601562 5.734375 1.539062 12.503906 9.601562 19.046875 17.410156 9.96875 11.871094 20.269531 24.152344 34.480468 24.152344 14.207032 0 24.511719-12.28125 34.480469-24.152344 6.542969-7.800781 13.308594-15.871094 19.046875-17.398438 6.160156-1.664062 16.382813 2.03125 26.261719 5.597657 14.273437 5.152343 29.042969 10.480469 40.882813 3.640625 12-6.960938 14.78125-22.558594 17.445312-37.601563 1.808594-10.214843 3.671875-20.796875 8.050781-25.160156 4.375-4.359375 14.949219-6.246094 25.167969-8.046875 15.078125-2.671875 30.679688-5.429688 37.597656-17.457031 6.855469-11.839844 1.519532-26.605469-3.636718-40.878907-3.578126-9.871093-7.265626-20.085937-5.601563-26.261718 1.535156-5.738282 9.601563-12.503906 17.40625-19.050782 11.875-9.96875 24.152344-20.269531 24.152344-34.480468 0-14.207032-12.261719-24.519532-24.136719-34.488282zm-10.285156 56.707032c-9.707032 8.132812-19.738282 16.558594-22.578125 27.199218-2.941407 11.03125 1.601562 23.640626 6.023437 35.832032 3.730469 10.335937 7.960938 22.039062 4.800782 27.4375-3.199219 5.601562-15.632813 7.769531-26.582032 9.707031-12.65625 2.238281-25.746094 4.550781-33.6875 12.496094-7.945312 7.941406-10.257812 21.023437-12.488281 33.679687-1.9375 10.949219-4.128906 23.359375-9.707031 26.582032-5.390625 3.121093-17.101563-1.109376-27.429688-4.800782-12.191406-4.414062-24.800781-8.980468-35.839844-6.015625-10.609374 2.832031-19.03125 12.867188-27.199218 22.570313-7.257813 8.648437-15.480469 18.398437-22.226563 18.398437-6.742187 0-14.96875-9.792969-22.222656-18.398437-8.136719-9.703125-16.558594-19.738282-27.199219-22.578125-2.464844-.636719-5-.953125-7.546875-.933594-9.75.730469-19.308593 3.082031-28.285156 6.957031-10.335937 3.730469-22.050781 7.960938-27.441406 4.800782-5.601563-3.199219-7.769531-15.632813-9.703125-26.582032-2.242188-12.65625-4.550782-25.746094-12.496094-33.6875-7.945312-7.945312-21.023438-10.257812-33.679688-12.488281-10.953124-1.9375-23.359374-4.128906-26.585937-9.707031-3.117187-5.398438 1.113281-17.101563 4.839844-27.429688 4.417969-12.199218 8.96875-24.800781 6.015625-35.839844-2.832032-10.609374-12.863282-19.03125-22.566406-27.199218-8.648438-7.257813-18.398438-15.480469-18.398438-22.226563 0-6.742187 9.789062-14.964843 18.398438-22.222656 9.703124-8.136719 19.734374-16.558594 22.574218-27.199219 2.945313-11.03125-1.597656-23.640625-6.023437-35.832031-3.726563-10.335937-8-22.039063-4.839844-27.441406 3.199219-5.597657 15.632813-7.765625 26.585937-9.703125 12.65625-2.242188 25.742188-4.550782 33.6875-12.496094 7.945313-7.945312 10.253907-21.023438 12.488282-33.679688 1.933594-10.953124 4.128906-23.359374 9.703125-26.585937 5.375-3.117187 17.105469 1.113281 27.433593 4.839844 12.199219 4.410156 24.796876 8.976562 35.839844 6.015625 10.605469-2.832032 19.03125-12.863282 27.199219-22.566406 7.253906-8.648438 15.480469-18.398438 22.222656-18.398438 6.746094 0 14.96875 9.789062 22.226563 18.398438 8.132812 9.703124 16.558594 19.734374 27.199218 22.578124 11.039063 2.941407 23.640626-1.601562 35.832032-6.027343 10.328125-3.726563 22.03125-8 27.4375-4.839844 5.601562 3.203125 7.769531 15.632813 9.707031 26.585937 2.238281 12.65625 4.550781 25.742188 12.496094 33.6875 7.941406 7.945313 21.023437 10.257813 33.679687 12.488282 10.949219 1.9375 23.359375 4.128906 26.582032 9.703125 3.121093 5.402343-1.109376 17.105469-4.800782 27.433593-4.414062 12.199219-8.964844 24.800782-6.015625 35.839844 2.832031 10.605469 12.863281 19.03125 22.570313 27.199219 8.648437 7.257813 18.398437 15.480469 18.398437 22.222656 0 6.746094-9.75 14.96875-18.398437 22.226563zm0 0"/><path d="m241.28125 73.550781c-92.785156 0-168 75.21875-168 168 0 92.785157 75.214844 168 168 168 92.78125 0 168-75.214843 168-168-.101562-92.742187-75.257812-167.898437-168-168zm0 320c-83.949219 0-152-68.050781-152-152 0-83.945312 68.050781-152 152-152 83.945312 0 152 68.054688 152 152-.09375 83.910157-68.09375 151.910157-152 152zm0 0"/><path d="m163.621094 307.894531 144-144 11.316406 11.3125-144.003906 144.003907zm0 0"/><path d="m289.28125 257.550781c-17.675781 0-32 14.328125-32 32 0 17.675781 14.324219 32 32 32 17.671875 0 32-14.324219 32-32 0-17.671875-14.328125-32-32-32zm0 48c-8.835938 0-16-7.164062-16-16 0-8.835937 7.164062-16 16-16s16 7.164063 16 16c0 8.835938-7.164062 16-16 16zm0 0"/><path d="m193.28125 225.550781c17.671875 0 32-14.324219 32-32 0-17.671875-14.328125-32-32-32-17.675781 0-32 14.328125-32 32 0 17.675781 14.324219 32 32 32zm0-48c8.835938 0 16 7.164063 16 16 0 8.835938-7.164062 16-16 16s-16-7.164062-16-16c0-8.835937 7.164062-16 16-16zm0 0"/></svg>